<?xml version="1.0" encoding="UTF-8" standalone="no"?>
<!-- Created with Inkscape (http://www.inkscape.org/) -->

<svg
   xmlns:dc="http://purl.org/dc/elements/1.1/"
   xmlns:cc="http://creativecommons.org/ns#"
   xmlns:rdf="http://www.w3.org/1999/02/22-rdf-syntax-ns#"
   xmlns:svg="http://www.w3.org/2000/svg"
   xmlns="http://www.w3.org/2000/svg"
   xmlns:sodipodi="http://sodipodi.sourceforge.net/DTD/sodipodi-0.dtd"
   xmlns:inkscape="http://www.inkscape.org/namespaces/inkscape"
   id="svg2"
   version="1.1"
   inkscape:version="0.48.0 r9654"
   width="765"
   height="990"
   xml:space="preserve"
   sodipodi:docname="feedforwardnetwork.eps"><metadata
     id="metadata8"><rdf:RDF><cc:Work
         rdf:about=""><dc:format>image/svg+xml</dc:format><dc:type
           rdf:resource="http://purl.org/dc/dcmitype/StillImage" /><dc:title></dc:title></cc:Work></rdf:RDF></metadata><defs
     id="defs6" /><sodipodi:namedview
     pagecolor="#ffffff"
     bordercolor="#666666"
     borderopacity="1"
     objecttolerance="10"
     gridtolerance="10"
     guidetolerance="10"
     inkscape:pageopacity="0"
     inkscape:pageshadow="2"
     inkscape:window-width="1440"
     inkscape:window-height="798"
     id="namedview4"
     showgrid="false"
     inkscape:zoom="1.8531906"
     inkscape:cx="161.68099"
     inkscape:cy="794.60115"
     inkscape:window-x="0"
     inkscape:window-y="0"
     inkscape:window-maximized="0"
     inkscape:current-layer="g10" /><g
     id="g10"
     inkscape:groupmode="layer"
     inkscape:label="ink_ext_XXXXXX"
     transform="matrix(1.25,0,0,-1.25,0,990)"><path
       inkscape:connector-curvature="0"
       id="path14"
       style="fill:#000000;fill-opacity:1;fill-rule:nonzero;stroke:none"
       d="m 106.485,579.364 -1.504,0 0,0.597 c 0.235,0.032 0.423,0.06 0.565,0.085 0.143,0.025 0.278,0.061 0.406,0.107 0.132,0.05 0.233,0.101 0.304,0.155 0.071,0.053 0.14,0.13 0.208,0.229 0.068,0.103 0.123,0.211 0.165,0.325 0.046,0.118 0.096,0.27 0.15,0.459 l 0.549,0 0,-6.811 -0.843,0 0,4.854" /><path
       inkscape:connector-curvature="0"
       id="path16"
       style="fill:#000000;fill-opacity:1;fill-rule:nonzero;stroke:none"
       d="m 105.205,721.107 1.739,-2.597 -0.933,0 -1.254,1.931 -1.28,-1.931 -0.912,0 1.776,2.56 -1.685,2.469 0.917,0 1.206,-1.823 1.21,1.823 0.902,0 -1.686,-2.432" /><path
       inkscape:connector-curvature="0"
       id="path18"
       style="fill:#000000;fill-opacity:1;fill-rule:nonzero;stroke:none"
       d="m 108.857,718.546 -1.003,0 0,0.398 c 0.157,0.021 0.282,0.04 0.377,0.057 0.095,0.017 0.185,0.04 0.27,0.071 0.088,0.033 0.156,0.067 0.203,0.103 0.048,0.036 0.094,0.087 0.139,0.153 0.045,0.069 0.082,0.141 0.11,0.217 0.031,0.078 0.064,0.18 0.099,0.306 l 0.367,0 0,-4.541 -0.562,0 0,3.236" /><path
       inkscape:connector-curvature="0"
       id="path20"
       style="fill:#000000;fill-opacity:1;fill-rule:nonzero;stroke:none"
       d="m 105.205,693.107 1.739,-2.597 -0.933,0 -1.254,1.931 -1.28,-1.931 -0.912,0 1.776,2.56 -1.685,2.469 0.917,0 1.206,-1.823 1.21,1.823 0.902,0 -1.686,-2.432" /><path
       inkscape:connector-curvature="0"
       id="path22"
       style="fill:#000000;fill-opacity:1;fill-rule:nonzero;stroke:none"
       d="m 107.52,690.272 c 0.031,1.053 0.53,1.579 1.497,1.579 0.429,0 0.778,-0.125 1.045,-0.374 0.27,-0.246 0.406,-0.566 0.406,-0.959 0,-0.565 -0.319,-1.022 -0.957,-1.373 l -0.64,-0.341 c -0.277,-0.15 -0.476,-0.295 -0.597,-0.438 -0.119,-0.139 -0.192,-0.307 -0.22,-0.501 l 2.385,0 0,-0.555 -3.022,0 c 0.026,0.501 0.127,0.886 0.302,1.156 0.178,0.27 0.502,0.539 0.974,0.807 l 0.591,0.334 c 0.407,0.232 0.611,0.531 0.611,0.896 0,0.242 -0.085,0.445 -0.256,0.608 -0.171,0.164 -0.384,0.246 -0.64,0.246 -0.149,0 -0.281,-0.025 -0.395,-0.075 -0.111,-0.05 -0.197,-0.111 -0.259,-0.182 -0.062,-0.071 -0.113,-0.159 -0.153,-0.266 -0.04,-0.107 -0.067,-0.202 -0.082,-0.285 -0.012,-0.08 -0.021,-0.173 -0.028,-0.277 l -0.562,0" /><path
       inkscape:connector-curvature="0"
       id="path24"
       style="fill:#000000;fill-opacity:1;fill-rule:nonzero;stroke:none"
       d="m 105.205,665.107 1.739,-2.597 -0.933,0 -1.254,1.931 -1.28,-1.931 -0.912,0 1.776,2.56 -1.685,2.469 0.917,0 1.206,-1.823 1.21,1.823 0.902,0 -1.686,-2.432" /><path
       inkscape:connector-curvature="0"
       id="path26"
       style="fill:#000000;fill-opacity:1;fill-rule:nonzero;stroke:none"
       d="m 108.928,663.357 c -0.14,0 -0.262,-0.019 -0.366,-0.057 -0.102,-0.036 -0.184,-0.083 -0.246,-0.143 -0.061,-0.059 -0.111,-0.132 -0.149,-0.22 -0.038,-0.088 -0.064,-0.175 -0.078,-0.263 -0.014,-0.085 -0.024,-0.183 -0.028,-0.292 l -0.562,0 c 0.012,0.481 0.137,0.847 0.376,1.095 0.242,0.249 0.592,0.374 1.05,0.374 0.431,0 0.769,-0.112 1.013,-0.335 0.246,-0.22 0.369,-0.526 0.369,-0.917 0,-0.457 -0.212,-0.771 -0.636,-0.942 0.27,-0.093 0.466,-0.224 0.587,-0.395 0.121,-0.17 0.181,-0.399 0.181,-0.686 0,-0.429 -0.14,-0.771 -0.419,-1.028 -0.278,-0.255 -0.65,-0.384 -1.117,-0.384 -0.474,0 -0.834,0.122 -1.081,0.363 -0.244,0.242 -0.383,0.609 -0.416,1.102 l 0.562,0 c 0.019,-0.331 0.105,-0.577 0.26,-0.736 0.156,-0.156 0.388,-0.234 0.697,-0.234 0.293,0 0.523,0.08 0.689,0.241 0.166,0.162 0.249,0.386 0.249,0.673 0,0.272 -0.079,0.477 -0.238,0.615 -0.157,0.139 -0.39,0.209 -0.7,0.209 l -0.239,-0.003 -0.071,0 0,0.476 c 0.403,0.007 0.689,0.057 0.857,0.15 0.168,0.094 0.253,0.28 0.253,0.558 0,0.242 -0.071,0.431 -0.214,0.569 -0.14,0.14 -0.334,0.21 -0.583,0.21" /><path
       inkscape:connector-curvature="0"
       id="path28"
       style="fill:#000000;fill-opacity:1;fill-rule:nonzero;stroke:none"
       d="m 105.205,625.108 1.739,-2.598 -0.933,0 -1.254,1.931 -1.28,-1.931 -0.912,0 1.776,2.56 -1.685,2.469 0.917,0 1.206,-1.823 1.21,1.823 0.902,0 -1.686,-2.431" /><path
       inkscape:connector-curvature="0"
       id="path30"
       style="fill:#000000;fill-opacity:1;fill-rule:nonzero;stroke:none"
       d="m 107.648,622.663 0.491,0 0,-0.561 c 0.149,0.234 0.309,0.402 0.48,0.504 0.173,0.102 0.385,0.153 0.636,0.153 0.322,0 0.58,-0.083 0.772,-0.249 0.192,-0.165 0.288,-0.387 0.288,-0.665 l 0,-2.535 -0.53,0 0,2.322 c 0,0.204 -0.063,0.365 -0.189,0.484 -0.123,0.118 -0.29,0.177 -0.501,0.177 -0.275,0 -0.495,-0.103 -0.661,-0.309 -0.166,-0.206 -0.249,-0.48 -0.249,-0.821 l 0,-1.853 -0.537,0 0,3.353" /><path
       inkscape:connector-curvature="0"
       id="path32"
       style="fill:#000000;fill-opacity:1;fill-rule:evenodd;stroke:none"
       d="m 106.332,650.728 c 0,-0.424 -0.312,-0.769 -0.696,-0.769 -0.384,0 -0.696,0.345 -0.696,0.769 0,0.424 0.312,0.768 0.696,0.768 0.384,0 0.696,-0.344 0.696,-0.768" /><g
       transform="scale(0.0623278,-0.137672)"
       id="g34"><path
         inkscape:connector-curvature="0"
         id="path36"
         style="fill:none;stroke:#000000;stroke-width:2.23327994;stroke-linecap:butt;stroke-linejoin:miter;stroke-miterlimit:10;stroke-opacity:1;stroke-dasharray:none"
         d="m 1706.01,-4726.65 c 0,3.09 -5,5.58 -11.17,5.58 -6.16,0 -11.16,-2.49 -11.16,-5.58 0,-3.08 5,-5.58 11.16,-5.58 6.17,0 11.17,2.5 11.17,5.58 z" /></g><path
       inkscape:connector-curvature="0"
       id="path38"
       style="fill:#000000;fill-opacity:1;fill-rule:evenodd;stroke:none"
       d="m 106.332,644.265 c 0,-0.424 -0.312,-0.769 -0.696,-0.769 -0.384,0 -0.696,0.345 -0.696,0.769 0,0.424 0.312,0.769 0.696,0.769 0.384,0 0.696,-0.345 0.696,-0.769" /><g
       transform="scale(0.0623278,-0.137672)"
       id="g40"><path
         inkscape:connector-curvature="0"
         id="path42"
         style="fill:none;stroke:#000000;stroke-width:2.23327994;stroke-linecap:butt;stroke-linejoin:miter;stroke-miterlimit:10;stroke-opacity:1;stroke-dasharray:none"
         d="m 1706.01,-4679.71 c 0,3.09 -5,5.59 -11.17,5.59 -6.16,0 -11.16,-2.5 -11.16,-5.59 0,-3.08 5,-5.58 11.16,-5.58 6.17,0 11.17,2.5 11.17,5.58 z" /></g><path
       inkscape:connector-curvature="0"
       id="path44"
       style="fill:#000000;fill-opacity:1;fill-rule:evenodd;stroke:none"
       d="m 106.332,644.265 c 0,-0.424 -0.312,-0.769 -0.696,-0.769 -0.384,0 -0.696,0.345 -0.696,0.769 0,0.424 0.312,0.769 0.696,0.769 0.384,0 0.696,-0.345 0.696,-0.769" /><g
       transform="scale(0.0623278,-0.137672)"
       id="g46"><path
         inkscape:connector-curvature="0"
         id="path48"
         style="fill:none;stroke:#000000;stroke-width:2.23327994;stroke-linecap:butt;stroke-linejoin:miter;stroke-miterlimit:10;stroke-opacity:1;stroke-dasharray:none"
         d="m 1706.01,-4679.71 c 0,3.09 -5,5.59 -11.17,5.59 -6.16,0 -11.16,-2.5 -11.16,-5.59 0,-3.08 5,-5.58 11.16,-5.58 6.17,0 11.17,2.5 11.17,5.58 z" /></g><path
       inkscape:connector-curvature="0"
       id="path50"
       style="fill:#000000;fill-opacity:1;fill-rule:evenodd;stroke:none"
       d="m 106.332,637.802 c 0,-0.424 -0.312,-0.768 -0.696,-0.768 -0.384,0 -0.696,0.344 -0.696,0.768 0,0.425 0.312,0.769 0.696,0.769 0.384,0 0.696,-0.344 0.696,-0.769" /><g
       transform="scale(0.0623278,-0.137672)"
       id="g52"><path
         inkscape:connector-curvature="0"
         id="path54"
         style="fill:none;stroke:#000000;stroke-width:2.23327994;stroke-linecap:butt;stroke-linejoin:miter;stroke-miterlimit:10;stroke-opacity:1;stroke-dasharray:none"
         d="m 1706.01,-4632.76 c 0,3.08 -5,5.58 -11.17,5.58 -6.16,0 -11.16,-2.5 -11.16,-5.58 0,-3.09 5,-5.58 11.16,-5.58 6.17,0 11.17,2.49 11.17,5.58 z" /></g><path
       inkscape:connector-curvature="0"
       id="path56"
       style="fill:#000000;fill-opacity:1;fill-rule:nonzero;stroke:none"
       d="m 194.144,579.642 -1.505,0 0,0.597 c 0.235,0.032 0.424,0.061 0.566,0.086 0.142,0.025 0.277,0.06 0.405,0.106 0.132,0.05 0.233,0.102 0.304,0.155 0.072,0.053 0.141,0.13 0.208,0.229 0.068,0.103 0.123,0.212 0.166,0.326 0.046,0.117 0.096,0.27 0.149,0.458 l 0.549,0 0,-6.81 -0.842,0 0,4.853" /><path
       inkscape:connector-curvature="0"
       id="path58"
       style="fill:none;stroke:#000000;stroke-width:0.80000001;stroke-linecap:butt;stroke-linejoin:miter;stroke-miterlimit:10;stroke-opacity:1;stroke-dasharray:none"
       d="m 202.965,720.389 c 0,-5.329 -4.325,-9.653 -9.653,-9.653 -5.329,0 -9.654,4.324 -9.654,9.653 0,5.328 4.325,9.653 9.654,9.653 5.328,0 9.653,-4.325 9.653,-9.653 z" /><path
       inkscape:connector-curvature="0"
       id="path60"
       style="fill:#000000;fill-opacity:1;fill-rule:nonzero;stroke:none"
       d="m 194.309,723.818 0,-0.709 -2.981,-3.616 3.12,0 0,-0.704 -4.096,0 0,0.715 3.008,3.61 -2.8,0 0,0.704 3.749,0" /><path
       inkscape:connector-curvature="0"
       id="path62"
       style="fill:#000000;fill-opacity:1;fill-rule:nonzero;stroke:none"
       d="m 196.515,718.824 -1.003,0 0,0.399 c 0.157,0.021 0.283,0.04 0.377,0.056 0.095,0.017 0.185,0.041 0.271,0.071 0.087,0.034 0.155,0.068 0.202,0.104 0.048,0.035 0.094,0.086 0.139,0.153 0.045,0.068 0.082,0.141 0.11,0.216 0.031,0.079 0.064,0.181 0.1,0.306 l 0.366,0 0,-4.54 -0.562,0 0,3.235" /><path
       inkscape:connector-curvature="0"
       id="path64"
       style="fill:none;stroke:#000000;stroke-width:0.80000001;stroke-linecap:butt;stroke-linejoin:miter;stroke-miterlimit:10;stroke-opacity:1;stroke-dasharray:none"
       d="m 202.965,692.389 c 0,-5.329 -4.325,-9.653 -9.653,-9.653 -5.329,0 -9.654,4.324 -9.654,9.653 0,5.328 4.325,9.653 9.654,9.653 5.328,0 9.653,-4.325 9.653,-9.653 z" /><path
       inkscape:connector-curvature="0"
       id="path66"
       style="fill:#000000;fill-opacity:1;fill-rule:nonzero;stroke:none"
       d="m 194.309,695.818 0,-0.709 -2.981,-3.616 3.12,0 0,-0.704 -4.096,0 0,0.715 3.008,3.61 -2.8,0 0,0.704 3.749,0" /><path
       inkscape:connector-curvature="0"
       id="path68"
       style="fill:#000000;fill-opacity:1;fill-rule:nonzero;stroke:none"
       d="m 195.178,690.55 c 0.031,1.053 0.53,1.579 1.497,1.579 0.429,0 0.778,-0.124 1.046,-0.373 0.27,-0.247 0.405,-0.567 0.405,-0.96 0,-0.564 -0.319,-1.022 -0.956,-1.373 l -0.641,-0.341 c -0.277,-0.149 -0.476,-0.295 -0.597,-0.437 -0.118,-0.14 -0.192,-0.307 -0.22,-0.502 l 2.385,0 0,-0.554 -3.022,0 c 0.026,0.5 0.127,0.885 0.302,1.155 0.178,0.27 0.503,0.54 0.975,0.807 l 0.59,0.335 c 0.408,0.232 0.612,0.53 0.612,0.896 0,0.241 -0.086,0.444 -0.257,0.607 -0.17,0.164 -0.384,0.246 -0.64,0.246 -0.149,0 -0.28,-0.025 -0.394,-0.075 -0.112,-0.049 -0.198,-0.11 -0.26,-0.181 -0.062,-0.071 -0.112,-0.16 -0.153,-0.267 -0.04,-0.107 -0.067,-0.201 -0.082,-0.284 -0.011,-0.081 -0.021,-0.173 -0.028,-0.278 l -0.562,0" /><path
       inkscape:connector-curvature="0"
       id="path70"
       style="fill:none;stroke:#000000;stroke-width:0.80000001;stroke-linecap:butt;stroke-linejoin:miter;stroke-miterlimit:10;stroke-opacity:1;stroke-dasharray:none"
       d="m 202.965,664.389 c 0,-5.329 -4.325,-9.653 -9.653,-9.653 -5.329,0 -9.654,4.324 -9.654,9.653 0,5.328 4.325,9.653 9.654,9.653 5.328,0 9.653,-4.325 9.653,-9.653 z" /><path
       inkscape:connector-curvature="0"
       id="path72"
       style="fill:#000000;fill-opacity:1;fill-rule:nonzero;stroke:none"
       d="m 194.309,667.818 0,-0.709 -2.981,-3.616 3.12,0 0,-0.704 -4.096,0 0,0.715 3.008,3.61 -2.8,0 0,0.704 3.749,0" /><path
       inkscape:connector-curvature="0"
       id="path74"
       style="fill:#000000;fill-opacity:1;fill-rule:nonzero;stroke:none"
       d="m 196.586,663.635 c -0.14,0 -0.262,-0.019 -0.366,-0.057 -0.102,-0.035 -0.184,-0.083 -0.245,-0.142 -0.062,-0.059 -0.112,-0.133 -0.15,-0.221 -0.037,-0.087 -0.064,-0.175 -0.078,-0.263 -0.014,-0.085 -0.024,-0.182 -0.028,-0.291 l -0.562,0 c 0.012,0.481 0.138,0.846 0.377,1.095 0.242,0.249 0.591,0.373 1.049,0.373 0.431,0 0.769,-0.111 1.013,-0.334 0.247,-0.22 0.37,-0.526 0.37,-0.917 0,-0.458 -0.212,-0.772 -0.637,-0.942 0.271,-0.093 0.466,-0.225 0.587,-0.395 0.121,-0.171 0.181,-0.4 0.181,-0.687 0,-0.429 -0.14,-0.771 -0.419,-1.027 -0.278,-0.256 -0.649,-0.384 -1.117,-0.384 -0.473,0 -0.834,0.121 -1.081,0.362 -0.244,0.242 -0.382,0.61 -0.416,1.103 l 0.562,0 c 0.019,-0.332 0.106,-0.578 0.26,-0.736 0.156,-0.157 0.389,-0.235 0.697,-0.235 0.294,0 0.524,0.081 0.69,0.242 0.165,0.161 0.248,0.385 0.248,0.672 0,0.272 -0.079,0.478 -0.238,0.615 -0.156,0.14 -0.39,0.21 -0.7,0.21 l -0.238,-0.004 -0.072,0 0,0.477 c 0.404,0.007 0.689,0.056 0.857,0.149 0.168,0.095 0.253,0.281 0.253,0.558 0,0.242 -0.071,0.432 -0.213,0.569 -0.14,0.14 -0.335,0.21 -0.584,0.21" /><path
       inkscape:connector-curvature="0"
       id="path76"
       style="fill:none;stroke:#000000;stroke-width:0.80000001;stroke-linecap:butt;stroke-linejoin:miter;stroke-miterlimit:10;stroke-opacity:1;stroke-dasharray:none"
       d="m 202.965,624.389 c 0,-5.329 -4.325,-9.653 -9.653,-9.653 -5.329,0 -9.654,4.324 -9.654,9.653 0,5.328 4.325,9.653 9.654,9.653 5.328,0 9.653,-4.325 9.653,-9.653 z" /><path
       inkscape:connector-curvature="0"
       id="path78"
       style="fill:#000000;fill-opacity:1;fill-rule:nonzero;stroke:none"
       d="m 194.309,627.818 0,-0.709 -2.981,-3.616 3.12,0 0,-0.704 -4.096,0 0,0.715 3.008,3.61 -2.8,0 0,0.704 3.749,0" /><path
       inkscape:connector-curvature="0"
       id="path80"
       style="fill:#000000;fill-opacity:1;fill-rule:nonzero;stroke:none"
       d="m 198.023,618.195 -0.527,0 0,1.778 c -0.123,-0.183 -0.269,-0.317 -0.437,-0.402 -0.168,-0.085 -0.368,-0.128 -0.601,-0.128 -0.44,0 -0.79,0.157 -1.049,0.473 -0.255,0.315 -0.384,0.744 -0.384,1.287 0,0.557 0.133,1.001 0.399,1.333 0.265,0.334 0.618,0.502 1.059,0.502 0.223,0 0.426,-0.047 0.608,-0.139 0.185,-0.092 0.339,-0.228 0.463,-0.405 l 0,0.447 0.469,0 0,-4.746 m -1.462,4.345 c -0.293,0 -0.531,-0.12 -0.711,-0.359 -0.177,-0.24 -0.266,-0.554 -0.266,-0.942 0,-0.392 0.089,-0.707 0.266,-0.946 0.18,-0.237 0.418,-0.356 0.711,-0.356 0.28,0 0.505,0.117 0.676,0.352 0.173,0.235 0.259,0.544 0.259,0.928 0,0.403 -0.085,0.724 -0.255,0.964 -0.169,0.239 -0.395,0.359 -0.68,0.359" /><path
       inkscape:connector-curvature="0"
       id="path82"
       style="fill:#000000;fill-opacity:1;fill-rule:evenodd;stroke:none"
       d="m 193.99,651.006 c 0,-0.424 -0.311,-0.768 -0.695,-0.768 -0.385,0 -0.697,0.344 -0.697,0.768 0,0.424 0.312,0.769 0.697,0.769 0.384,0 0.695,-0.345 0.695,-0.769" /><g
       transform="scale(0.0623278,-0.137672)"
       id="g84"><path
         inkscape:connector-curvature="0"
         id="path86"
         style="fill:none;stroke:#000000;stroke-width:2.23327994;stroke-linecap:butt;stroke-linejoin:miter;stroke-miterlimit:10;stroke-opacity:1;stroke-dasharray:none"
         d="m 3112.42,-4728.67 c 0,3.08 -5,5.58 -11.16,5.58 -6.17,0 -11.17,-2.5 -11.17,-5.58 0,-3.08 5,-5.58 11.17,-5.58 6.16,0 11.16,2.5 11.16,5.58 z" /></g><path
       inkscape:connector-curvature="0"
       id="path88"
       style="fill:#000000;fill-opacity:1;fill-rule:evenodd;stroke:none"
       d="m 193.99,644.544 c 0,-0.424 -0.311,-0.769 -0.695,-0.769 -0.385,0 -0.697,0.345 -0.697,0.769 0,0.424 0.312,0.768 0.697,0.768 0.384,0 0.695,-0.344 0.695,-0.768" /><g
       transform="scale(0.0623278,-0.137672)"
       id="g90"><path
         inkscape:connector-curvature="0"
         id="path92"
         style="fill:none;stroke:#000000;stroke-width:2.23327994;stroke-linecap:butt;stroke-linejoin:miter;stroke-miterlimit:10;stroke-opacity:1;stroke-dasharray:none"
         d="m 3112.42,-4681.73 c 0,3.08 -5,5.59 -11.16,5.59 -6.17,0 -11.17,-2.51 -11.17,-5.59 0,-3.08 5,-5.58 11.17,-5.58 6.16,0 11.16,2.5 11.16,5.58 z" /></g><path
       inkscape:connector-curvature="0"
       id="path94"
       style="fill:#000000;fill-opacity:1;fill-rule:evenodd;stroke:none"
       d="m 193.99,644.544 c 0,-0.424 -0.311,-0.769 -0.695,-0.769 -0.385,0 -0.697,0.345 -0.697,0.769 0,0.424 0.312,0.768 0.697,0.768 0.384,0 0.695,-0.344 0.695,-0.768" /><g
       transform="scale(0.0623278,-0.137672)"
       id="g96"><path
         inkscape:connector-curvature="0"
         id="path98"
         style="fill:none;stroke:#000000;stroke-width:2.23327994;stroke-linecap:butt;stroke-linejoin:miter;stroke-miterlimit:10;stroke-opacity:1;stroke-dasharray:none"
         d="m 3112.42,-4681.73 c 0,3.08 -5,5.59 -11.16,5.59 -6.17,0 -11.17,-2.51 -11.17,-5.59 0,-3.08 5,-5.58 11.17,-5.58 6.16,0 11.16,2.5 11.16,5.58 z" /></g><path
       inkscape:connector-curvature="0"
       id="path100"
       style="fill:#000000;fill-opacity:1;fill-rule:evenodd;stroke:none"
       d="m 193.99,638.081 c 0,-0.424 -0.311,-0.769 -0.695,-0.769 -0.385,0 -0.697,0.345 -0.697,0.769 0,0.424 0.312,0.769 0.697,0.769 0.384,0 0.695,-0.345 0.695,-0.769" /><g
       transform="scale(0.0623278,-0.137672)"
       id="g102"><path
         inkscape:connector-curvature="0"
         id="path104"
         style="fill:none;stroke:#000000;stroke-width:2.23327994;stroke-linecap:butt;stroke-linejoin:miter;stroke-miterlimit:10;stroke-opacity:1;stroke-dasharray:none"
         d="m 3112.42,-4634.78 c 0,3.08 -5,5.58 -11.16,5.58 -6.17,0 -11.17,-2.5 -11.17,-5.58 0,-3.09 5,-5.59 11.17,-5.59 6.16,0 11.16,2.5 11.16,5.59 z" /></g><path
       inkscape:connector-curvature="0"
       id="path106"
       style="fill:none;stroke:#000000;stroke-width:0.80000001;stroke-linecap:butt;stroke-linejoin:miter;stroke-miterlimit:10;stroke-opacity:1;stroke-dasharray:none"
       d="m 116,720.11 67.829,0.022" /><path
       inkscape:connector-curvature="0"
       id="path108"
       style="fill:none;stroke:#000000;stroke-width:0.80000001;stroke-linecap:butt;stroke-linejoin:miter;stroke-miterlimit:10;stroke-opacity:1;stroke-dasharray:none"
       d="m 116,720.11 67.551,-28.345" /><path
       inkscape:connector-curvature="0"
       id="path110"
       style="fill:none;stroke:#000000;stroke-width:0.80000001;stroke-linecap:butt;stroke-linejoin:miter;stroke-miterlimit:10;stroke-opacity:1;stroke-dasharray:none"
       d="m 116,720.11 66.995,-55.6" /><path
       inkscape:connector-curvature="0"
       id="path112"
       style="fill:none;stroke:#000000;stroke-width:0.80000001;stroke-linecap:butt;stroke-linejoin:miter;stroke-miterlimit:10;stroke-opacity:1;stroke-dasharray:none"
       d="m 116,720.11 66.717,-94.813" /><path
       inkscape:connector-curvature="0"
       id="path114"
       style="fill:none;stroke:#000000;stroke-width:0.80000001;stroke-linecap:butt;stroke-linejoin:miter;stroke-miterlimit:10;stroke-opacity:1;stroke-dasharray:none"
       d="m 116,692.11 67.273,28.022" /><path
       inkscape:connector-curvature="0"
       id="path116"
       style="fill:none;stroke:#000000;stroke-width:0.80000001;stroke-linecap:butt;stroke-linejoin:miter;stroke-miterlimit:10;stroke-opacity:1;stroke-dasharray:none"
       d="m 116,692.11 67.829,-0.623" /><path
       inkscape:connector-curvature="0"
       id="path118"
       style="fill:none;stroke:#000000;stroke-width:0.80000001;stroke-linecap:butt;stroke-linejoin:miter;stroke-miterlimit:10;stroke-opacity:1;stroke-dasharray:none"
       d="m 116,692.11 66.995,-27.044" /><path
       inkscape:connector-curvature="0"
       id="path120"
       style="fill:none;stroke:#000000;stroke-width:0.80000001;stroke-linecap:butt;stroke-linejoin:miter;stroke-miterlimit:10;stroke-opacity:1;stroke-dasharray:none"
       d="m 116,692.11 67.273,-67.369" /><path
       inkscape:connector-curvature="0"
       id="path122"
       style="fill:none;stroke:#000000;stroke-width:0.80000001;stroke-linecap:butt;stroke-linejoin:miter;stroke-miterlimit:10;stroke-opacity:1;stroke-dasharray:none"
       d="m 116,664.11 67.829,56.3" /><path
       inkscape:connector-curvature="0"
       id="path124"
       style="fill:none;stroke:#000000;stroke-width:0.80000001;stroke-linecap:butt;stroke-linejoin:miter;stroke-miterlimit:10;stroke-opacity:1;stroke-dasharray:none"
       d="m 116,664.11 67.273,27.099" /><path
       inkscape:connector-curvature="0"
       id="path126"
       style="fill:none;stroke:#000000;stroke-width:0.80000001;stroke-linecap:butt;stroke-linejoin:miter;stroke-miterlimit:10;stroke-opacity:1;stroke-dasharray:none"
       d="m 116,664.11 66.717,-0.434" /><path
       inkscape:connector-curvature="0"
       id="path128"
       style="fill:none;stroke:#000000;stroke-width:0.80000001;stroke-linecap:butt;stroke-linejoin:miter;stroke-miterlimit:10;stroke-opacity:1;stroke-dasharray:none"
       d="m 116,664.11 66.995,-38.535" /><path
       inkscape:connector-curvature="0"
       id="path130"
       style="fill:none;stroke:#000000;stroke-width:0.80000001;stroke-linecap:butt;stroke-linejoin:miter;stroke-miterlimit:10;stroke-opacity:1;stroke-dasharray:none"
       d="m 116,624.11 67.551,96.022" /><path
       inkscape:connector-curvature="0"
       id="path132"
       style="fill:none;stroke:#000000;stroke-width:0.80000001;stroke-linecap:butt;stroke-linejoin:miter;stroke-miterlimit:10;stroke-opacity:1;stroke-dasharray:none"
       d="m 116,624.11 67.829,67.655" /><path
       inkscape:connector-curvature="0"
       id="path134"
       style="fill:none;stroke:#000000;stroke-width:0.80000001;stroke-linecap:butt;stroke-linejoin:miter;stroke-miterlimit:10;stroke-opacity:1;stroke-dasharray:none"
       d="m 116,624.11 66.995,40.122" /><path
       inkscape:connector-curvature="0"
       id="path136"
       style="fill:none;stroke:#000000;stroke-width:0.80000001;stroke-linecap:butt;stroke-linejoin:miter;stroke-miterlimit:10;stroke-opacity:1;stroke-dasharray:none"
       d="m 116,624.11 67.551,0.074" /><path
       inkscape:connector-curvature="0"
       id="path138"
       style="fill:none;stroke:#000000;stroke-width:0.80000001;stroke-linecap:butt;stroke-linejoin:miter;stroke-miterlimit:10;stroke-opacity:1;stroke-dasharray:none"
       d="m 116,576.11 67.273,144.022" /><path
       inkscape:connector-curvature="0"
       id="path140"
       style="fill:none;stroke:#000000;stroke-width:0.80000001;stroke-linecap:butt;stroke-linejoin:miter;stroke-miterlimit:10;stroke-opacity:1;stroke-dasharray:none"
       d="m 116,576.11 67.273,116.211" /><path
       inkscape:connector-curvature="0"
       id="path142"
       style="fill:none;stroke:#000000;stroke-width:0.80000001;stroke-linecap:butt;stroke-linejoin:miter;stroke-miterlimit:10;stroke-opacity:1;stroke-dasharray:none"
       d="m 116,576.11 66.995,87.566" /><path
       inkscape:connector-curvature="0"
       id="path144"
       style="fill:none;stroke:#000000;stroke-width:0.80000001;stroke-linecap:butt;stroke-linejoin:miter;stroke-miterlimit:10;stroke-opacity:1;stroke-dasharray:none"
       d="m 116,576.11 67.829,48.074" /><path
       inkscape:connector-curvature="0"
       id="path184"
       style="fill:none;stroke:#000000;stroke-width:0.80000001;stroke-linecap:butt;stroke-linejoin:miter;stroke-miterlimit:10;stroke-opacity:1;stroke-dasharray:none"
       d="m 290.996,720.234 c 0,-5.329 -4.325,-9.653 -9.653,-9.653 -5.329,0 -9.654,4.324 -9.654,9.653 0,5.329 4.325,9.654 9.654,9.654 5.328,0 9.653,-4.325 9.653,-9.654 z" /><path
       inkscape:connector-curvature="0"
       id="path186"
       style="fill:#000000;fill-opacity:1;fill-rule:nonzero;stroke:none"
       d="m 281.812,723.663 0.864,0 -2.23,-6.085 c -0.266,-0.69 -0.7,-1.035 -1.301,-1.035 -0.202,0 -0.382,0.039 -0.538,0.118 l 0,0.725 c 0.184,-0.039 0.325,-0.059 0.421,-0.059 0.17,0 0.304,0.038 0.4,0.112 0.096,0.072 0.179,0.196 0.251,0.374 l 0.303,0.8 -1.701,5.05 0.859,0 1.28,-3.914 1.392,3.914" /><path
       inkscape:connector-curvature="0"
       id="path188"
       style="fill:#000000;fill-opacity:1;fill-rule:nonzero;stroke:none"
       d="m 284.546,718.67 -1.003,0 0,0.398 c 0.157,0.021 0.283,0.04 0.377,0.057 0.095,0.016 0.185,0.04 0.271,0.071 0.088,0.033 0.155,0.067 0.202,0.103 0.048,0.035 0.094,0.087 0.139,0.153 0.045,0.069 0.082,0.141 0.11,0.217 0.031,0.078 0.064,0.18 0.1,0.306 l 0.366,0 0,-4.541 -0.562,0 0,3.236" /><path
       inkscape:connector-curvature="0"
       id="path190"
       style="fill:none;stroke:#000000;stroke-width:0.80000001;stroke-linecap:butt;stroke-linejoin:miter;stroke-miterlimit:10;stroke-opacity:1;stroke-dasharray:none"
       d="m 290.996,692.234 c 0,-5.329 -4.325,-9.653 -9.653,-9.653 -5.329,0 -9.654,4.324 -9.654,9.653 0,5.329 4.325,9.654 9.654,9.654 5.328,0 9.653,-4.325 9.653,-9.654 z" /><path
       inkscape:connector-curvature="0"
       id="path192"
       style="fill:#000000;fill-opacity:1;fill-rule:nonzero;stroke:none"
       d="m 281.812,695.663 0.864,0 -2.23,-6.085 c -0.266,-0.69 -0.7,-1.035 -1.301,-1.035 -0.202,0 -0.382,0.039 -0.538,0.118 l 0,0.725 c 0.184,-0.039 0.325,-0.059 0.421,-0.059 0.17,0 0.304,0.038 0.4,0.112 0.096,0.072 0.179,0.196 0.251,0.374 l 0.303,0.8 -1.701,5.05 0.859,0 1.28,-3.914 1.392,3.914" /><path
       inkscape:connector-curvature="0"
       id="path194"
       style="fill:#000000;fill-opacity:1;fill-rule:nonzero;stroke:none"
       d="m 283.209,690.396 c 0.031,1.052 0.53,1.579 1.497,1.579 0.429,0 0.778,-0.125 1.046,-0.374 0.27,-0.246 0.405,-0.566 0.405,-0.96 0,-0.564 -0.319,-1.021 -0.957,-1.372 l -0.639,-0.342 c -0.278,-0.149 -0.477,-0.295 -0.598,-0.437 -0.118,-0.14 -0.192,-0.307 -0.22,-0.501 l 2.386,0 0,-0.555 -3.023,0 c 0.026,0.5 0.127,0.886 0.303,1.156 0.177,0.27 0.502,0.539 0.974,0.807 l 0.59,0.334 c 0.407,0.232 0.611,0.531 0.611,0.896 0,0.242 -0.085,0.444 -0.255,0.608 -0.171,0.163 -0.384,0.245 -0.641,0.245 -0.149,0 -0.281,-0.025 -0.394,-0.075 -0.112,-0.049 -0.198,-0.11 -0.26,-0.181 -0.061,-0.071 -0.113,-0.16 -0.153,-0.266 -0.04,-0.107 -0.067,-0.202 -0.081,-0.285 -0.012,-0.08 -0.022,-0.173 -0.029,-0.277 l -0.562,0" /><path
       inkscape:connector-curvature="0"
       id="path196"
       style="fill:none;stroke:#000000;stroke-width:0.80000001;stroke-linecap:butt;stroke-linejoin:miter;stroke-miterlimit:10;stroke-opacity:1;stroke-dasharray:none"
       d="m 290.996,664.234 c 0,-5.329 -4.325,-9.653 -9.653,-9.653 -5.329,0 -9.654,4.324 -9.654,9.653 0,5.329 4.325,9.654 9.654,9.654 5.328,0 9.653,-4.325 9.653,-9.654 z" /><path
       inkscape:connector-curvature="0"
       id="path198"
       style="fill:#000000;fill-opacity:1;fill-rule:nonzero;stroke:none"
       d="m 281.812,667.663 0.864,0 -2.23,-6.085 c -0.266,-0.69 -0.7,-1.035 -1.301,-1.035 -0.202,0 -0.382,0.039 -0.538,0.118 l 0,0.725 c 0.184,-0.039 0.325,-0.059 0.421,-0.059 0.17,0 0.304,0.038 0.4,0.112 0.096,0.072 0.179,0.196 0.251,0.374 l 0.303,0.8 -1.701,5.05 0.859,0 1.28,-3.914 1.392,3.914" /><path
       inkscape:connector-curvature="0"
       id="path200"
       style="fill:#000000;fill-opacity:1;fill-rule:nonzero;stroke:none"
       d="m 284.617,663.48 c -0.14,0 -0.262,-0.019 -0.366,-0.057 -0.102,-0.035 -0.184,-0.082 -0.245,-0.142 -0.062,-0.059 -0.112,-0.133 -0.15,-0.22 -0.038,-0.088 -0.063,-0.175 -0.078,-0.263 -0.014,-0.086 -0.024,-0.183 -0.028,-0.292 l -0.562,0 c 0.012,0.481 0.137,0.846 0.377,1.095 0.242,0.249 0.591,0.374 1.049,0.374 0.431,0 0.769,-0.112 1.013,-0.335 0.246,-0.22 0.37,-0.526 0.37,-0.917 0,-0.457 -0.212,-0.771 -0.636,-0.942 0.269,-0.093 0.465,-0.224 0.586,-0.395 0.121,-0.17 0.182,-0.399 0.182,-0.686 0,-0.429 -0.14,-0.772 -0.42,-1.028 -0.277,-0.256 -0.65,-0.384 -1.116,-0.384 -0.475,0 -0.835,0.121 -1.082,0.363 -0.244,0.242 -0.382,0.609 -0.415,1.102 l 0.561,0 c 0.019,-0.332 0.106,-0.577 0.26,-0.736 0.156,-0.156 0.388,-0.235 0.697,-0.235 0.294,0 0.524,0.081 0.69,0.242 0.166,0.162 0.248,0.385 0.248,0.672 0,0.273 -0.079,0.478 -0.238,0.615 -0.156,0.14 -0.39,0.21 -0.7,0.21 l -0.239,-0.003 -0.071,0 0,0.476 c 0.403,0.007 0.689,0.057 0.857,0.149 0.169,0.095 0.253,0.281 0.253,0.559 0,0.241 -0.071,0.431 -0.214,0.569 -0.139,0.14 -0.334,0.209 -0.583,0.209" /><path
       inkscape:connector-curvature="0"
       id="path202"
       style="fill:none;stroke:#000000;stroke-width:0.80000001;stroke-linecap:butt;stroke-linejoin:miter;stroke-miterlimit:10;stroke-opacity:1;stroke-dasharray:none"
       d="m 290.996,624.234 c 0,-5.329 -4.325,-9.653 -9.653,-9.653 -5.329,0 -9.654,4.324 -9.654,9.653 0,5.329 4.325,9.654 9.654,9.654 5.328,0 9.653,-4.325 9.653,-9.654 z" /><path
       inkscape:connector-curvature="0"
       id="path204"
       style="fill:#000000;fill-opacity:1;fill-rule:nonzero;stroke:none"
       d="m 281.812,627.663 0.864,0 -2.23,-6.085 c -0.266,-0.69 -0.7,-1.035 -1.301,-1.035 -0.202,0 -0.382,0.039 -0.538,0.118 l 0,0.725 c 0.184,-0.039 0.325,-0.059 0.421,-0.059 0.17,0 0.304,0.038 0.4,0.112 0.096,0.072 0.179,0.196 0.251,0.374 l 0.303,0.8 -1.701,5.05 0.859,0 1.28,-3.914 1.392,3.914" /><path
       inkscape:connector-curvature="0"
       id="path206"
       style="fill:#000000;fill-opacity:1;fill-rule:nonzero;stroke:none"
       d="m 283.337,622.787 0.491,0 0,-0.473 c 0.147,0.204 0.3,0.35 0.459,0.438 0.158,0.087 0.349,0.131 0.572,0.131 0.218,0 0.398,-0.042 0.541,-0.124 0.142,-0.081 0.264,-0.21 0.366,-0.388 0.154,0.19 0.308,0.322 0.462,0.398 0.154,0.076 0.342,0.114 0.565,0.114 0.313,0 0.554,-0.081 0.722,-0.242 0.168,-0.161 0.253,-0.391 0.253,-0.689 l 0,-2.518 -0.541,0 0,2.311 c 0,0.211 -0.054,0.376 -0.163,0.494 -0.11,0.119 -0.261,0.178 -0.455,0.178 -0.219,0 -0.405,-0.085 -0.559,-0.256 -0.154,-0.17 -0.231,-0.377 -0.231,-0.618 l 0,-2.109 -0.537,0 0,2.311 c 0,0.214 -0.054,0.378 -0.163,0.494 -0.107,0.119 -0.259,0.178 -0.455,0.178 -0.219,0 -0.405,-0.085 -0.559,-0.256 -0.154,-0.17 -0.231,-0.377 -0.231,-0.618 l 0,-2.109 -0.537,0 0,3.353" /><path
       inkscape:connector-curvature="0"
       id="path208"
       style="fill:#000000;fill-opacity:1;fill-rule:evenodd;stroke:none"
       d="m 282.021,650.852 c 0,-0.425 -0.312,-0.769 -0.696,-0.769 -0.384,0 -0.696,0.344 -0.696,0.769 0,0.424 0.312,0.768 0.696,0.768 0.384,0 0.696,-0.344 0.696,-0.768" /><g
       transform="scale(0.0623278,-0.137672)"
       id="g210"><path
         inkscape:connector-curvature="0"
         id="path212"
         style="fill:none;stroke:#000000;stroke-width:2.23327994;stroke-linecap:butt;stroke-linejoin:miter;stroke-miterlimit:10;stroke-opacity:1;stroke-dasharray:none"
         d="m 4524.81,-4727.55 c 0,3.09 -5.01,5.59 -11.17,5.59 -6.17,0 -11.17,-2.5 -11.17,-5.59 0,-3.08 5,-5.58 11.17,-5.58 6.16,0 11.17,2.5 11.17,5.58 z" /></g><path
       inkscape:connector-curvature="0"
       id="path214"
       style="fill:#000000;fill-opacity:1;fill-rule:evenodd;stroke:none"
       d="m 282.021,644.389 c 0,-0.424 -0.312,-0.769 -0.696,-0.769 -0.384,0 -0.696,0.345 -0.696,0.769 0,0.424 0.312,0.769 0.696,0.769 0.384,0 0.696,-0.345 0.696,-0.769" /><g
       transform="scale(0.0623278,-0.137672)"
       id="g216"><path
         inkscape:connector-curvature="0"
         id="path218"
         style="fill:none;stroke:#000000;stroke-width:2.23327994;stroke-linecap:butt;stroke-linejoin:miter;stroke-miterlimit:10;stroke-opacity:1;stroke-dasharray:none"
         d="m 4524.81,-4680.6 c 0,3.08 -5.01,5.58 -11.17,5.58 -6.17,0 -11.17,-2.5 -11.17,-5.58 0,-3.09 5,-5.59 11.17,-5.59 6.16,0 11.17,2.5 11.17,5.59 z" /></g><path
       inkscape:connector-curvature="0"
       id="path220"
       style="fill:#000000;fill-opacity:1;fill-rule:evenodd;stroke:none"
       d="m 282.021,644.389 c 0,-0.424 -0.312,-0.769 -0.696,-0.769 -0.384,0 -0.696,0.345 -0.696,0.769 0,0.424 0.312,0.769 0.696,0.769 0.384,0 0.696,-0.345 0.696,-0.769" /><g
       transform="scale(0.0623278,-0.137672)"
       id="g222"><path
         inkscape:connector-curvature="0"
         id="path224"
         style="fill:none;stroke:#000000;stroke-width:2.23327994;stroke-linecap:butt;stroke-linejoin:miter;stroke-miterlimit:10;stroke-opacity:1;stroke-dasharray:none"
         d="m 4524.81,-4680.6 c 0,3.08 -5.01,5.58 -11.17,5.58 -6.17,0 -11.17,-2.5 -11.17,-5.58 0,-3.09 5,-5.59 11.17,-5.59 6.16,0 11.17,2.5 11.17,5.59 z" /></g><path
       inkscape:connector-curvature="0"
       id="path226"
       style="fill:#000000;fill-opacity:1;fill-rule:evenodd;stroke:none"
       d="m 282.021,637.926 c 0,-0.424 -0.312,-0.768 -0.696,-0.768 -0.384,0 -0.696,0.344 -0.696,0.768 0,0.425 0.312,0.769 0.696,0.769 0.384,0 0.696,-0.344 0.696,-0.769" /><g
       transform="scale(0.0623278,-0.137672)"
       id="g228"><path
         inkscape:connector-curvature="0"
         id="path230"
         style="fill:none;stroke:#000000;stroke-width:2.23327994;stroke-linecap:butt;stroke-linejoin:miter;stroke-miterlimit:10;stroke-opacity:1;stroke-dasharray:none"
         d="m 4524.81,-4633.66 c 0,3.08 -5.01,5.58 -11.17,5.58 -6.17,0 -11.17,-2.5 -11.17,-5.58 0,-3.08 5,-5.58 11.17,-5.58 6.16,0 11.17,2.5 11.17,5.58 z" /></g><path
       inkscape:connector-curvature="0"
       id="path232"
       style="fill:none;stroke:#000000;stroke-width:0.80000001;stroke-linecap:butt;stroke-linejoin:miter;stroke-miterlimit:10;stroke-opacity:1;stroke-dasharray:none"
       d="m 204.031,719.956 67.829,0.021" /><path
       inkscape:connector-curvature="0"
       id="path234"
       style="fill:none;stroke:#000000;stroke-width:0.80000001;stroke-linecap:butt;stroke-linejoin:miter;stroke-miterlimit:10;stroke-opacity:1;stroke-dasharray:none"
       d="M 204.031,719.956 271.582,691.61" /><path
       inkscape:connector-curvature="0"
       id="path236"
       style="fill:none;stroke:#000000;stroke-width:0.80000001;stroke-linecap:butt;stroke-linejoin:miter;stroke-miterlimit:10;stroke-opacity:1;stroke-dasharray:none"
       d="m 204.031,719.956 66.995,-55.601" /><path
       inkscape:connector-curvature="0"
       id="path238"
       style="fill:none;stroke:#000000;stroke-width:0.80000001;stroke-linecap:butt;stroke-linejoin:miter;stroke-miterlimit:10;stroke-opacity:1;stroke-dasharray:none"
       d="m 204.031,719.956 66.717,-94.814" /><path
       inkscape:connector-curvature="0"
       id="path240"
       style="fill:none;stroke:#000000;stroke-width:0.80000001;stroke-linecap:butt;stroke-linejoin:miter;stroke-miterlimit:10;stroke-opacity:1;stroke-dasharray:none"
       d="m 204.031,691.956 67.273,28.021" /><path
       inkscape:connector-curvature="0"
       id="path242"
       style="fill:none;stroke:#000000;stroke-width:0.80000001;stroke-linecap:butt;stroke-linejoin:miter;stroke-miterlimit:10;stroke-opacity:1;stroke-dasharray:none"
       d="m 204.031,691.956 67.829,-0.624" /><path
       inkscape:connector-curvature="0"
       id="path244"
       style="fill:none;stroke:#000000;stroke-width:0.80000001;stroke-linecap:butt;stroke-linejoin:miter;stroke-miterlimit:10;stroke-opacity:1;stroke-dasharray:none"
       d="m 204.031,691.956 66.995,-27.044" /><path
       inkscape:connector-curvature="0"
       id="path246"
       style="fill:none;stroke:#000000;stroke-width:0.80000001;stroke-linecap:butt;stroke-linejoin:miter;stroke-miterlimit:10;stroke-opacity:1;stroke-dasharray:none"
       d="m 204.031,691.956 67.273,-67.37" /><path
       inkscape:connector-curvature="0"
       id="path248"
       style="fill:none;stroke:#000000;stroke-width:0.80000001;stroke-linecap:butt;stroke-linejoin:miter;stroke-miterlimit:10;stroke-opacity:1;stroke-dasharray:none"
       d="m 204.031,663.956 67.829,56.299" /><path
       inkscape:connector-curvature="0"
       id="path250"
       style="fill:none;stroke:#000000;stroke-width:0.80000001;stroke-linecap:butt;stroke-linejoin:miter;stroke-miterlimit:10;stroke-opacity:1;stroke-dasharray:none"
       d="m 204.031,663.956 67.273,27.098" /><path
       inkscape:connector-curvature="0"
       id="path252"
       style="fill:none;stroke:#000000;stroke-width:0.80000001;stroke-linecap:butt;stroke-linejoin:miter;stroke-miterlimit:10;stroke-opacity:1;stroke-dasharray:none"
       d="m 204.031,663.956 66.717,-0.435" /><path
       inkscape:connector-curvature="0"
       id="path254"
       style="fill:none;stroke:#000000;stroke-width:0.80000001;stroke-linecap:butt;stroke-linejoin:miter;stroke-miterlimit:10;stroke-opacity:1;stroke-dasharray:none"
       d="M 204.031,663.956 271.026,625.42" /><path
       inkscape:connector-curvature="0"
       id="path256"
       style="fill:none;stroke:#000000;stroke-width:0.80000001;stroke-linecap:butt;stroke-linejoin:miter;stroke-miterlimit:10;stroke-opacity:1;stroke-dasharray:none"
       d="m 204.031,623.956 67.551,96.021" /><path
       inkscape:connector-curvature="0"
       id="path258"
       style="fill:none;stroke:#000000;stroke-width:0.80000001;stroke-linecap:butt;stroke-linejoin:miter;stroke-miterlimit:10;stroke-opacity:1;stroke-dasharray:none"
       d="M 204.031,623.956 271.86,691.61" /><path
       inkscape:connector-curvature="0"
       id="path260"
       style="fill:none;stroke:#000000;stroke-width:0.80000001;stroke-linecap:butt;stroke-linejoin:miter;stroke-miterlimit:10;stroke-opacity:1;stroke-dasharray:none"
       d="m 204.031,623.956 66.995,40.121" /><path
       inkscape:connector-curvature="0"
       id="path262"
       style="fill:none;stroke:#000000;stroke-width:0.80000001;stroke-linecap:butt;stroke-linejoin:miter;stroke-miterlimit:10;stroke-opacity:1;stroke-dasharray:none"
       d="m 204.031,623.956 67.551,0.074" /><path
       inkscape:connector-curvature="0"
       id="path264"
       style="fill:none;stroke:#000000;stroke-width:0.80000001;stroke-linecap:butt;stroke-linejoin:miter;stroke-miterlimit:10;stroke-opacity:1;stroke-dasharray:none"
       d="m 204.031,575.956 67.273,144.021" /><path
       inkscape:connector-curvature="0"
       id="path266"
       style="fill:none;stroke:#000000;stroke-width:0.80000001;stroke-linecap:butt;stroke-linejoin:miter;stroke-miterlimit:10;stroke-opacity:1;stroke-dasharray:none"
       d="m 204.031,575.956 67.273,116.21" /><path
       inkscape:connector-curvature="0"
       id="path268"
       style="fill:none;stroke:#000000;stroke-width:0.80000001;stroke-linecap:butt;stroke-linejoin:miter;stroke-miterlimit:10;stroke-opacity:1;stroke-dasharray:none"
       d="m 204.031,575.956 66.995,87.565" /><path
       inkscape:connector-curvature="0"
       id="path270"
       style="fill:none;stroke:#000000;stroke-width:0.80000001;stroke-linecap:butt;stroke-linejoin:miter;stroke-miterlimit:10;stroke-opacity:1;stroke-dasharray:none"
       d="M 204.031,575.956 271.86,624.03" /><path
       inkscape:connector-curvature="0"
       id="path298"
       style="fill:none;stroke:#000000;stroke-width:0.80000001;stroke-linecap:butt;stroke-linejoin:miter;stroke-miterlimit:10;stroke-opacity:1;stroke-dasharray:none"
       d="m 101.806,730.51 8.388,0 c 3.217,0 5.806,-2.589 5.806,-5.806 l 0,-8.388 c 0,-3.216 -2.589,-5.806 -5.806,-5.806 l -8.388,0 c -3.2165,0 -5.806,2.59 -5.806,5.806 l 0,8.388 c 0,3.217 2.5895,5.806 5.806,5.806 z" /><path
       inkscape:connector-curvature="0"
       id="path300"
       style="fill:none;stroke:#000000;stroke-width:0.80000001;stroke-linecap:butt;stroke-linejoin:miter;stroke-miterlimit:10;stroke-opacity:1;stroke-dasharray:none"
       d="m 101.849,702.31 8.388,0 c 3.216,0 5.806,-2.59 5.806,-5.806 l 0,-8.388 c 0,-3.217 -2.59,-5.806 -5.806,-5.806 l -8.388,0 c -3.2166,0 -5.806,2.589 -5.806,5.806 l 0,8.388 c 0,3.216 2.5894,5.806 5.806,5.806 z" /><path
       inkscape:connector-curvature="0"
       id="path302"
       style="fill:none;stroke:#000000;stroke-width:0.80000001;stroke-linecap:butt;stroke-linejoin:miter;stroke-miterlimit:10;stroke-opacity:1;stroke-dasharray:none"
       d="m 101.604,674.281 8.388,0 c 3.217,0 5.806,-2.589 5.806,-5.806 l 0,-8.387 c 0,-3.217 -2.589,-5.807 -5.806,-5.807 l -8.388,0 c -3.2161,0 -5.806,2.59 -5.806,5.807 l 0,8.387 c 0,3.217 2.5899,5.806 5.806,5.806 z" /><path
       inkscape:connector-curvature="0"
       id="path304"
       style="fill:none;stroke:#000000;stroke-width:0.80000001;stroke-linecap:butt;stroke-linejoin:miter;stroke-miterlimit:10;stroke-opacity:1;stroke-dasharray:none"
       d="m 101.806,634.188 8.388,0 c 3.217,0 5.806,-2.59 5.806,-5.807 l 0,-8.387 c 0,-3.217 -2.589,-5.806 -5.806,-5.806 l -8.388,0 c -3.2165,0 -5.806,2.589 -5.806,5.806 l 0,8.387 c 0,3.217 2.5895,5.807 5.806,5.807 z" /><path
       inkscape:connector-curvature="0"
       id="path306"
       style="fill:none;stroke:#000000;stroke-width:0.80000001;stroke-linecap:butt;stroke-linejoin:miter;stroke-miterlimit:10;stroke-opacity:1;stroke-dasharray:none"
       d="m 101.862,587.312 8.388,0 c 3.216,0 5.806,-2.589 5.806,-5.806 l 0,-8.388 c 0,-3.216 -2.59,-5.806 -5.806,-5.806 l -8.388,0 c -3.2167,0 -5.8061,2.59 -5.8061,5.806 l 0,8.388 c 0,3.217 2.5894,5.806 5.8061,5.806 z" /><path
       inkscape:connector-curvature="0"
       id="path308"
       style="fill:none;stroke:#000000;stroke-width:0.80000001;stroke-linecap:butt;stroke-linejoin:miter;stroke-miterlimit:10;stroke-opacity:1;stroke-dasharray:none"
       d="m 189.806,587.788 8.388,0 c 3.217,0 5.806,-2.59 5.806,-5.807 l 0,-8.387 c 0,-3.217 -2.589,-5.806 -5.806,-5.806 l -8.388,0 c -3.217,0 -5.806,2.589 -5.806,5.806 l 0,8.387 c 0,3.217 2.589,5.807 5.806,5.807 z" /><path
       inkscape:connector-curvature="0"
       id="path310"
       style="fill:#000000;fill-opacity:1;fill-rule:nonzero;stroke:none"
       d="m 152.338,617.36 1.631,0 0.881,-3.619 0.886,3.619 1.402,0 0.881,-3.581 0.886,3.581 1.631,0 -1.383,-5.25 -1.833,0 -0.886,3.61 -0.881,-3.61 -1.833,0 -1.382,5.25" /><path
       inkscape:connector-curvature="0"
       id="path312"
       style="fill:#000000;fill-opacity:1;fill-rule:nonzero;stroke:none"
       d="m 162.014,616.397 -0.464,0 c -0.16,0.258 -0.277,0.502 -0.354,0.733 -0.075,0.232 -0.114,0.463 -0.114,0.691 0,0.228 0.039,0.459 0.114,0.692 0.078,0.234 0.195,0.479 0.354,0.734 l 0.464,0 c -0.134,-0.247 -0.234,-0.488 -0.3,-0.725 -0.067,-0.235 -0.1,-0.468 -0.1,-0.698 0,-0.23 0.032,-0.463 0.098,-0.7 0.067,-0.236 0.167,-0.479 0.302,-0.727" /><path
       inkscape:connector-curvature="0"
       id="path314"
       style="fill:#000000;fill-opacity:1;fill-rule:nonzero;stroke:none"
       d="m 162.645,617.235 0.531,0 0,1.508 -0.545,-0.113 0,0.409 0.542,0.113 0.572,0 0,-1.917 0.531,0 0,-0.416 -1.631,0 0,0.416" /><path
       inkscape:connector-curvature="0"
       id="path316"
       style="fill:#000000;fill-opacity:1;fill-rule:nonzero;stroke:none"
       d="m 164.751,616.397 c 0.134,0.248 0.234,0.491 0.3,0.727 0.067,0.237 0.1,0.47 0.1,0.7 0,0.23 -0.033,0.463 -0.1,0.698 -0.066,0.237 -0.166,0.478 -0.3,0.725 l 0.464,0 c 0.159,-0.255 0.276,-0.5 0.352,-0.734 0.077,-0.233 0.115,-0.464 0.115,-0.692 0,-0.228 -0.037,-0.459 -0.114,-0.691 -0.075,-0.231 -0.193,-0.475 -0.353,-0.733 l -0.464,0" /><path
       inkscape:connector-curvature="0"
       id="path318"
       style="fill:#000000;fill-opacity:1;fill-rule:nonzero;stroke:none"
       d="m 240.338,617.36 1.631,0 0.881,-3.619 0.886,3.619 1.402,0 0.881,-3.581 0.886,3.581 1.631,0 -1.383,-5.25 -1.833,0 -0.886,3.61 -0.881,-3.61 -1.833,0 -1.382,5.25" /><path
       inkscape:connector-curvature="0"
       id="path320"
       style="fill:#000000;fill-opacity:1;fill-rule:nonzero;stroke:none"
       d="m 250.014,616.397 -0.464,0 c -0.16,0.258 -0.277,0.502 -0.354,0.733 -0.075,0.232 -0.114,0.463 -0.114,0.691 0,0.228 0.039,0.459 0.114,0.692 0.078,0.234 0.195,0.479 0.354,0.734 l 0.464,0 c -0.134,-0.247 -0.234,-0.488 -0.3,-0.725 -0.067,-0.235 -0.1,-0.468 -0.1,-0.698 0,-0.23 0.032,-0.463 0.098,-0.7 0.067,-0.236 0.167,-0.479 0.302,-0.727" /><path
       inkscape:connector-curvature="0"
       id="path322"
       style="fill:#000000;fill-opacity:1;fill-rule:nonzero;stroke:none"
       d="m 251.192,617.261 1.026,0 0,-0.442 -1.695,0 0,0.442 0.852,0.752 c 0.076,0.069 0.132,0.136 0.168,0.201 0.037,0.066 0.055,0.134 0.055,0.205 0,0.11 -0.037,0.198 -0.111,0.264 -0.073,0.067 -0.17,0.1 -0.292,0.1 -0.094,0 -0.196,-0.02 -0.308,-0.061 -0.111,-0.039 -0.23,-0.099 -0.358,-0.178 l 0,0.513 c 0.136,0.045 0.27,0.079 0.402,0.101 0.132,0.024 0.262,0.036 0.389,0.036 0.279,0 0.496,-0.061 0.65,-0.184 0.155,-0.123 0.233,-0.294 0.233,-0.514 0,-0.127 -0.033,-0.246 -0.099,-0.357 -0.065,-0.109 -0.203,-0.256 -0.414,-0.44 l -0.498,-0.438" /><path
       inkscape:connector-curvature="0"
       id="path324"
       style="fill:#000000;fill-opacity:1;fill-rule:nonzero;stroke:none"
       d="m 252.751,616.397 c 0.134,0.248 0.234,0.491 0.3,0.727 0.067,0.237 0.1,0.47 0.1,0.7 0,0.23 -0.033,0.463 -0.1,0.698 -0.066,0.237 -0.166,0.478 -0.3,0.725 l 0.464,0 c 0.159,-0.255 0.276,-0.5 0.352,-0.734 0.077,-0.233 0.115,-0.464 0.115,-0.692 0,-0.228 -0.037,-0.459 -0.114,-0.691 -0.075,-0.231 -0.193,-0.475 -0.353,-0.733 l -0.464,0" /><text
       xml:space="preserve"
       style="font-size:10px;font-style:normal;font-weight:normal;text-align:start;line-height:125%;letter-spacing:0px;word-spacing:0px;text-anchor:start;fill:#000000;fill-opacity:1;stroke:none;font-family:Bitstream Vera Sans"
       x="115.54366"
       y="65.650681"
       id="text3456"
       sodipodi:linespacing="125%"
       transform="matrix(0.8,0,0,-0.8,0,792)"><tspan
         sodipodi:role="line"
         id="tspan3458"
         x="115.54366"
         y="65.650681">Inputs</tspan></text>
<text
       xml:space="preserve"
       style="font-size:8px;font-style:normal;font-weight:normal;text-align:start;line-height:125%;letter-spacing:0px;word-spacing:0px;text-anchor:start;fill:#000000;fill-opacity:1;stroke:none;font-family:Bitstream Vera Sans"
       x="265.87891"
       y="-739.54486"
       id="text3456-8"
       sodipodi:linespacing="125%"
       transform="scale(1,-1)"><tspan
         sodipodi:role="line"
         id="tspan3458-2"
         x="265.87891"
         y="-739.54486">Outputs</tspan></text>
<rect
       style="color:#000000;fill:none;stroke:#000000;stroke-width:0.5;stroke-linecap:butt;stroke-linejoin:miter;stroke-miterlimit:0;stroke-opacity:1;stroke-dasharray:2, 0.5;stroke-dashoffset:0;marker:none;visibility:visible;display:inline;overflow:visible;enable-background:accumulate"
       id="rect3506"
       width="71.642166"
       height="215.20598"
       x="152.26241"
       y="76.255608"
       transform="matrix(0.8,0,0,-0.8,0,792)"
       ry="0" /><text
       xml:space="preserve"
       style="font-size:8px;font-style:normal;font-weight:normal;text-align:start;line-height:125%;letter-spacing:0px;word-spacing:0px;text-anchor:start;fill:#000000;fill-opacity:1;stroke:none;font-family:Bitstream Vera Sans"
       x="136.38571"
       y="-569.11877"
       id="text4456"
       sodipodi:linespacing="125%"
       transform="scale(1,-1)"><tspan
         sodipodi:role="line"
         id="tspan4458"
         x="136.38571"
         y="-569.11877">layer 1</tspan></text>
<rect
       style="color:#000000;fill:none;stroke:#000000;stroke-width:0.40000001;stroke-linecap:butt;stroke-linejoin:miter;stroke-miterlimit:0;stroke-opacity:1;stroke-dasharray:1.6, 0.4;stroke-dashoffset:0;marker:none;visibility:visible;display:inline;overflow:visible;enable-background:accumulate"
       id="rect3506-6"
       width="57.313732"
       height="172.16478"
       x="209.81024"
       y="-730.99548"
       ry="0"
       transform="scale(1,-1)" /><text
       xml:space="preserve"
       style="font-size:8px;font-style:normal;font-weight:normal;text-align:start;line-height:125%;letter-spacing:0px;word-spacing:0px;text-anchor:start;fill:#000000;fill-opacity:1;stroke:none;font-family:Bitstream Vera Sans"
       x="224.38605"
       y="-569.11877"
       id="text4456-8"
       sodipodi:linespacing="125%"
       transform="scale(1,-1)"><tspan
         sodipodi:role="line"
         id="tspan4458-2"
         x="224.38605"
         y="-569.11877">layer 2</tspan></text>
</g></svg>